<svg width="155" height="65" viewBox="0 0 155 65" fill="none" xmlns="http://www.w3.org/2000/svg">
<g clip-path="url(#clip0_136_499)">
<path d="M23.9989 36.1332C21.9698 36.1332 20.2338 35.7838 18.7909 35.0849C17.3705 34.386 16.2094 33.4616 15.3076 32.3118L17.9793 29.5387C18.8585 30.5532 19.8054 31.3085 20.82 31.8045C21.8571 32.278 22.9618 32.5147 24.1342 32.5147C25.4869 32.5147 26.524 32.2103 27.2454 31.6016C27.9669 30.9929 28.3276 30.1136 28.3276 28.9638C28.3276 28.0169 28.0571 27.3067 27.516 26.8332C26.9749 26.3372 26.0618 25.9878 24.7767 25.7849L22.2742 25.379C20.0873 24.9958 18.5316 24.2067 17.6073 23.0118C16.6829 21.7943 16.2207 20.3627 16.2207 18.7169C16.2207 16.4623 16.9534 14.7376 18.4189 13.5427C19.8843 12.3252 21.9134 11.7165 24.5062 11.7165C26.3549 11.7165 27.9443 12.0096 29.2745 12.5958C30.6273 13.182 31.7094 13.9823 32.5211 14.9969L29.9171 17.77C29.2858 17.026 28.5305 16.4398 27.6513 16.0114C26.772 15.5605 25.7349 15.335 24.54 15.335C21.9698 15.335 20.6847 16.3947 20.6847 18.514C20.6847 19.4158 20.9553 20.1034 21.4963 20.5769C22.0374 21.0503 22.9618 21.3998 24.2694 21.6252L26.7382 22.0649C28.7898 22.4481 30.3116 23.2034 31.3036 24.3307C32.2956 25.458 32.7916 26.9009 32.7916 28.6594C32.7916 29.7641 32.6 30.7787 32.2167 31.703C31.8334 32.6049 31.2698 33.3939 30.5258 34.0703C29.7818 34.7241 28.8574 35.2314 27.7527 35.5921C26.6705 35.9529 25.4193 36.1332 23.9989 36.1332ZM34.8751 18.2772H38.4936L39.9816 32.6838H40.286L42.6533 18.2772H46.61L48.9435 32.6838H49.2478L50.7696 18.2772H54.2191L51.9871 35.7274H46.7453L44.7162 22.9103H44.4118L42.3489 35.7274H37.1071L34.8751 18.2772ZM65.907 15.5718C64.8925 15.5718 64.171 15.3576 63.7426 14.9292C63.3368 14.5009 63.1339 13.9823 63.1339 13.3736V12.562C63.1339 11.9532 63.3368 11.4347 63.7426 11.0063C64.171 10.578 64.8925 10.3638 65.907 10.3638C66.9216 10.3638 67.6317 10.578 68.0376 11.0063C68.4659 11.4347 68.6801 11.9532 68.6801 12.562V13.3736C68.6801 13.9823 68.4659 14.5009 68.0376 14.9292C67.6317 15.3576 66.9216 15.5718 65.907 15.5718ZM57.9936 32.3118H63.7426V21.6929H57.9936V18.2772H68.0714V32.3118H73.4144V35.7274H57.9936V32.3118ZM77.4937 35.7274V18.2772H81.8224V21.3547H81.9915C82.3748 20.4078 82.961 19.5961 83.7501 18.9198C84.5617 18.2209 85.6777 17.8714 87.0981 17.8714C88.8115 17.8714 90.198 18.4463 91.2577 19.5961C92.3399 20.7234 92.881 22.3467 92.881 24.466V35.7274H88.5522V25.0747C88.5522 22.5496 87.4588 21.287 85.2719 21.287C84.821 21.287 84.3926 21.3434 83.9868 21.4561C83.581 21.5689 83.209 21.7492 82.8708 21.9972C82.5551 22.2227 82.2959 22.5045 82.093 22.8427C81.9126 23.1809 81.8224 23.5867 81.8224 24.0601V35.7274H77.4937ZM114.714 37.5536C114.714 39.3798 113.948 40.7212 112.414 41.578C110.904 42.4572 108.537 42.8969 105.313 42.8969C103.734 42.8969 102.416 42.7954 101.356 42.5925C100.296 42.4121 99.4396 42.1416 98.7858 41.7809C98.1545 41.4201 97.7036 40.9805 97.433 40.4619C97.1625 39.9659 97.0272 39.4023 97.0272 38.771C97.0272 37.8016 97.309 37.0576 97.8727 36.539C98.4363 36.0205 99.2254 35.6372 100.24 35.3892V35.1187C99.5636 34.8932 99.0225 34.5776 98.6167 34.1718C98.2334 33.766 98.0418 33.2023 98.0418 32.4809C98.0418 31.6241 98.3236 30.9816 98.8872 30.5532C99.4734 30.1249 100.24 29.798 101.187 29.5725V29.4034C100.15 28.9074 99.3381 28.2085 98.7519 27.3067C98.1658 26.4049 97.8727 25.3114 97.8727 24.0263C97.8727 23.0569 98.0418 22.2001 98.3799 21.4561C98.7407 20.6896 99.2367 20.047 99.8679 19.5285C100.522 18.9874 101.3 18.5816 102.201 18.311C103.103 18.018 104.106 17.8714 105.211 17.8714C106.384 17.8714 107.443 18.0292 108.39 18.3449V17.6009C108.39 16.9245 108.604 16.3609 109.033 15.91C109.484 15.459 110.104 15.2336 110.893 15.2336H114.038V18.4801H109.912V19.055C110.769 19.5736 111.422 20.25 111.873 21.0841C112.347 21.8958 112.584 22.8765 112.584 24.0263C112.584 24.9958 112.403 25.8638 112.042 26.6303C111.704 27.3969 111.208 28.0394 110.554 28.558C109.923 29.0765 109.145 29.4823 108.221 29.7754C107.319 30.0459 106.316 30.1812 105.211 30.1812C104.76 30.1812 104.321 30.1699 103.892 30.1474C103.486 30.1023 103.092 30.0234 102.709 29.9107C102.393 30.0234 102.089 30.2038 101.796 30.4518C101.502 30.6998 101.356 31.0267 101.356 31.4325C101.356 31.9736 101.615 32.3118 102.134 32.447C102.652 32.5598 103.272 32.6161 103.994 32.6161H107.95C109.168 32.6161 110.205 32.7401 111.062 32.9881C111.918 33.2136 112.617 33.5518 113.158 34.0027C113.7 34.431 114.094 34.9496 114.342 35.5583C114.59 36.167 114.714 36.8321 114.714 37.5536ZM110.656 37.858C110.656 37.3394 110.442 36.9223 110.013 36.6067C109.608 36.3136 108.841 36.167 107.714 36.167H101.694C101.018 36.5503 100.68 37.1139 100.68 37.858C100.68 38.4667 100.928 38.974 101.424 39.3798C101.942 39.7856 102.81 39.9885 104.028 39.9885H106.834C109.382 39.9885 110.656 39.2783 110.656 37.858ZM105.211 27.3405C106.316 27.3405 107.128 27.0812 107.646 26.5627C108.165 26.0216 108.424 25.3227 108.424 24.466V23.5867C108.424 22.73 108.165 22.0423 107.646 21.5238C107.128 20.9827 106.316 20.7121 105.211 20.7121C104.129 20.7121 103.329 20.9827 102.81 21.5238C102.292 22.0423 102.032 22.73 102.032 23.5867V24.466C102.032 25.3227 102.292 26.0216 102.81 26.5627C103.329 27.0812 104.129 27.3405 105.211 27.3405Z" fill="white"/>
<mask id="mask0_136_499" style="mask-type:luminance" maskUnits="userSpaceOnUse" x="0" y="-24" width="155" height="113">
<path d="M133.812 -23.8635L0 14.2329L21.1394 88.4843L154.951 50.3879L133.812 -23.8635Z" fill="white"/>
</mask>
<g mask="url(#mask0_136_499)">
<path d="M130.217 45.1737L129.812 45.3433L129.457 45.4873L128.767 45.7652L127.407 46.2953C126.507 46.6445 125.609 46.9827 124.714 47.3159C122.923 47.981 121.133 48.6243 119.342 49.2443C115.759 50.4892 112.156 51.6616 108.533 52.7607C101.273 54.9772 93.9178 56.8724 86.5046 58.4358C79.0632 59.983 71.5415 61.1652 63.9816 61.7401C62.0922 61.8824 60.2029 61.9846 58.3135 62.0466C56.4241 62.1079 54.5411 62.1198 52.6646 62.0825C48.8867 62.0149 45.1696 61.7091 41.5488 61.1673C39.7389 60.8869 37.943 60.5473 36.1913 60.1203C35.3137 59.9139 34.4529 59.6793 33.5939 59.4306C32.7351 59.1819 31.8956 58.9135 31.0722 58.6281C27.7552 57.4889 24.6905 56.0185 21.944 54.2487C21.6093 54.0253 21.2621 53.7985 20.945 53.5758L19.9982 52.9037C19.6796 52.6825 19.373 52.45 19.0647 52.2175C18.7564 51.985 18.4491 51.7567 18.1457 51.5214C16.9429 50.578 15.7751 49.5958 14.6734 48.5686C13.5718 47.5421 12.5359 46.4621 11.5694 45.3496C10.6083 44.2255 9.73345 43.0526 8.94845 41.8358C7.35702 39.4017 6.25544 36.7485 5.6762 33.9543C5.39767 32.5617 5.26943 31.1358 5.29272 29.6905C5.32605 28.2535 5.51407 26.8024 5.85485 25.3519C6.54934 22.4869 7.82019 19.6556 9.61875 16.9663C10.5007 15.6419 11.4977 14.355 12.6017 13.116C13.6926 11.8817 14.9083 10.7087 16.2346 9.61084C15.0544 10.7845 13.9953 12.0219 13.0698 13.3086C12.1417 14.5822 11.3257 15.8931 10.6282 17.2305C9.24098 19.8716 8.37819 22.604 8.07277 25.3235C7.93595 26.6599 7.94046 27.9855 8.08623 29.2868C8.2444 30.5762 8.53911 31.8371 8.96747 33.0573C9.83667 35.4881 11.1682 37.7552 12.9222 39.7912C13.7904 40.814 14.7365 41.7906 15.7563 42.7171C16.7883 43.6409 17.8788 44.5208 19.0213 45.3603C20.1638 46.1996 21.3773 46.9918 22.6154 47.7556C22.9271 47.9451 23.2483 48.1283 23.5631 48.3157C23.878 48.5031 24.1921 48.6884 24.5193 48.8652L25.4909 49.4021C25.8149 49.581 26.13 49.736 26.4502 49.9016C29.0224 51.1761 31.8327 52.1794 34.8208 52.8889C35.5626 53.0707 36.3212 53.2235 37.0737 53.375C37.8262 53.5272 38.6079 53.6533 39.389 53.7562C40.945 53.9823 42.5363 54.1366 44.1402 54.2402C50.5847 54.6418 57.3378 54.1225 64.0834 53.0566C70.8292 51.9906 77.6055 50.3659 84.2888 48.4059C90.994 46.4221 97.6026 44.1441 104.08 41.5838C107.327 40.3079 110.535 38.9725 113.704 37.5776C115.287 36.8796 116.861 36.1687 118.413 35.4455C119.188 35.082 119.959 34.7194 120.717 34.352L121.843 33.8028L122.389 33.5304L122.649 33.3978C122.734 33.3547 122.816 33.3115 122.86 33.2877L130.217 45.1737Z" fill="url(#paint0_linear_136_499)"/>
<path d="M148.874 29.0398L109.613 27.2786L125.392 39.6836L127.982 58.0659L148.874 29.0398Z" fill="#29CEEE"/>
</g>
</g>
<defs>
<linearGradient id="paint0_linear_136_499" x1="9.14748" y1="46.3663" x2="121.454" y2="14.3926" gradientUnits="userSpaceOnUse">
<stop stop-color="#7F8EF8"/>
<stop offset="1" stop-color="#25D1EE"/>
</linearGradient>
<clipPath id="clip0_136_499">
<rect width="155" height="65" fill="white"/>
</clipPath>
</defs>
</svg>
