<svg width="50" height="50" viewBox="0 0 50 50" fill="none" xmlns="http://www.w3.org/2000/svg">
<path d="M18.021 47.5C13.6807 47.5 9.99183 45.9639 6.95433 42.8917C3.91683 39.8194 2.39739 36.1125 2.396 31.7708C2.39461 27.4292 3.89669 23.7569 6.90225 20.7542C9.9078 17.7514 13.5793 16.25 17.9168 16.25H18.5939L20.0002 13.8021C20.4168 13.0382 21.0418 12.5437 21.8752 12.3187C22.7085 12.0937 23.5071 12.2062 24.271 12.6562L25.8335 13.5417L26.0939 13.125C26.8925 11.6319 28.1425 10.6597 29.8439 10.2083C31.5453 9.75694 33.1425 9.96528 34.6356 10.8333L36.4585 11.875L34.3752 15.4687L32.5522 14.4271C32.0661 14.1493 31.5363 14.0882 30.9627 14.2437C30.3891 14.3993 29.9641 14.7208 29.6877 15.2083L29.4272 15.625L31.5106 16.8229C32.2397 17.2396 32.7175 17.8646 32.9439 18.6979C33.1703 19.5312 33.0745 20.3125 32.6564 21.0417L31.2502 23.5417C32.0488 24.7917 32.6481 26.1201 33.0481 27.5271C33.4481 28.934 33.6474 30.3833 33.646 31.875C33.646 36.2153 32.1272 39.9049 29.0898 42.9438C26.0522 45.9826 22.3627 47.5014 18.021 47.5ZM18.021 43.3333C21.1807 43.3333 23.8807 42.2139 26.121 39.975C28.3613 37.7361 29.4807 35.0361 29.4793 31.875C29.4793 30.7986 29.3314 29.7396 29.0356 28.6979C28.7397 27.6562 28.2974 26.6667 27.7085 25.7292L26.3543 23.5937L28.5418 19.8437L23.1252 16.7187L20.9377 20.4687H18.646C15.3821 20.4687 12.5439 21.5104 10.1314 23.5937C7.71891 25.6771 6.51197 28.4028 6.51058 31.7708C6.51058 34.9653 7.63072 37.691 9.871 39.9479C12.1113 42.2049 14.8279 43.3333 18.021 43.3333ZM41.6668 18.3333V14.1667H47.9168V18.3333H41.6668ZM30.2085 6.875V0.625H34.3752V6.875H30.2085ZM40.3647 11.0937L37.4481 8.17708L41.8752 3.75L44.7918 6.66667L40.3647 11.0937Z" fill="#EF4444"/>
</svg>
