<svg width="1436" height="880" viewBox="0 0 1436 880" fill="none" xmlns="http://www.w3.org/2000/svg">
<g clip-path="url(#clip0_14_18)">
<line y1="474.105" x2="1511.58" y2="474.105" stroke="#172033" stroke-width="1.2607"/>
<line y1="754.105" x2="1511.58" y2="754.104" stroke="#172033" stroke-width="1.2607"/>
<line y1="194.105" x2="1511.58" y2="194.105" stroke="#172033" stroke-width="1.2607"/>
<line y1="334.105" x2="1511.58" y2="334.105" stroke="#172033" stroke-width="1.2607"/>
<line y1="614.105" x2="1511.58" y2="614.104" stroke="#172033" stroke-width="1.2607"/>
<line y1="54.1045" x2="1511.58" y2="54.1045" stroke="#172033" stroke-width="1.2607"/>
<line y1="404.105" x2="1511.58" y2="404.105" stroke="#172033" stroke-width="1.2607"/>
<line y1="684.105" x2="1511.58" y2="684.104" stroke="#172033" stroke-width="1.2607"/>
<line y1="124.105" x2="1511.58" y2="124.105" stroke="#172033" stroke-width="1.2607"/>
<line y1="824.105" x2="1511.58" y2="824.104" stroke="#172033" stroke-width="1.2607"/>
<line y1="264.105" x2="1511.58" y2="264.105" stroke="#172033" stroke-width="1.2607"/>
<line y1="544.105" x2="1511.58" y2="544.104" stroke="#172033" stroke-width="1.2607"/>
<line x1="43.6303" y1="-18" x2="43.6303" y2="1149.41" stroke="#172033" stroke-width="1.2607"/>
<line x1="595.63" y1="-18" x2="595.63" y2="1149.41" stroke="#172033" stroke-width="1.2607"/>
<line x1="319.63" y1="-18" x2="319.63" y2="1149.41" stroke="#172033" stroke-width="1.2607"/>
<line x1="871.63" y1="-18" x2="871.63" y2="1149.41" stroke="#172033" stroke-width="1.2607"/>
<line x1="1147.63" y1="-18" x2="1147.63" y2="1149.41" stroke="#172033" stroke-width="1.2607"/>
<line x1="181.63" y1="-18" x2="181.63" y2="1149.41" stroke="#172033" stroke-width="1.2607"/>
<line x1="733.63" y1="-18" x2="733.63" y2="1149.41" stroke="#172033" stroke-width="1.2607"/>
<line x1="457.63" y1="-18" x2="457.63" y2="1149.41" stroke="#172033" stroke-width="1.2607"/>
<line x1="1009.63" y1="-18" x2="1009.63" y2="1149.41" stroke="#172033" stroke-width="1.2607"/>
<line x1="1285.63" y1="-18" x2="1285.63" y2="1149.41" stroke="#172033" stroke-width="1.2607"/>
<line x1="112.63" y1="-18" x2="112.63" y2="1149.41" stroke="#172033" stroke-width="1.2607"/>
<line x1="664.63" y1="-18" x2="664.63" y2="1149.41" stroke="#172033" stroke-width="1.2607"/>
<line x1="388.63" y1="-18" x2="388.63" y2="1149.41" stroke="#172033" stroke-width="1.2607"/>
<line x1="940.63" y1="-18" x2="940.63" y2="1149.41" stroke="#172033" stroke-width="1.2607"/>
<line x1="1216.63" y1="-18" x2="1216.63" y2="1149.41" stroke="#172033" stroke-width="1.2607"/>
<line x1="250.63" y1="-18" x2="250.63" y2="1149.41" stroke="#172033" stroke-width="1.2607"/>
<line x1="802.63" y1="-18" x2="802.63" y2="1149.41" stroke="#172033" stroke-width="1.2607"/>
<line x1="526.63" y1="-18" x2="526.63" y2="1149.41" stroke="#172033" stroke-width="1.2607"/>
<line x1="1078.63" y1="-18" x2="1078.63" y2="1149.41" stroke="#172033" stroke-width="1.2607"/>
<line x1="1354.63" y1="-18" x2="1354.63" y2="1149.41" stroke="#172033" stroke-width="1.2607"/>
<g opacity="0.09">
<line x1="-11" y1="818.644" x2="1500.58" y2="818.644" stroke="#292727" stroke-width="1.2607"/>
<line x1="-11" y1="495.906" x2="1500.58" y2="495.906" stroke="#292727" stroke-width="1.2607"/>
<line x1="-11" y1="173.166" x2="1500.58" y2="173.166" stroke="#292727" stroke-width="1.2607"/>
<line x1="-11" y1="657.274" x2="1500.58" y2="657.274" stroke="#292727" stroke-width="1.2607"/>
<line x1="-11" y1="334.536" x2="1500.58" y2="334.536" stroke="#292727" stroke-width="1.2607"/>
<line x1="-11" y1="11.7976" x2="1500.58" y2="11.7976" stroke="#292727" stroke-width="1.2607"/>
<line x1="-11" y1="737.959" x2="1500.58" y2="737.959" stroke="#292727" stroke-width="1.2607"/>
<line x1="-11" y1="415.221" x2="1500.58" y2="415.221" stroke="#292727" stroke-width="1.2607"/>
<line x1="-11" y1="92.4827" x2="1500.58" y2="92.4827" stroke="#292727" stroke-width="1.2607"/>
<line x1="-11" y1="576.589" x2="1500.58" y2="576.589" stroke="#292727" stroke-width="1.2607"/>
<line x1="-11" y1="253.851" x2="1500.58" y2="253.851" stroke="#292727" stroke-width="1.2607"/>
<line x1="538.111" y1="145" x2="538.111" y2="1312.41" stroke="#292727" stroke-width="1.2607"/>
<line x1="215.371" y1="145" x2="215.371" y2="1312.41" stroke="#292727" stroke-width="1.2607"/>
<line x1="860.847" y1="145" x2="860.847" y2="1312.41" stroke="#292727" stroke-width="1.2607"/>
<line x1="1183.59" y1="145" x2="1183.59" y2="1312.41" stroke="#292727" stroke-width="1.2607"/>
<line x1="54.0005" y1="145" x2="54.0004" y2="1312.41" stroke="#292727" stroke-width="1.2607"/>
<line x1="699.477" y1="145" x2="699.477" y2="1312.41" stroke="#292727" stroke-width="1.2607"/>
<line x1="376.741" y1="145" x2="376.741" y2="1312.41" stroke="#292727" stroke-width="1.2607"/>
<line x1="1022.22" y1="145" x2="1022.22" y2="1312.41" stroke="#292727" stroke-width="1.2607"/>
<line x1="1344.96" y1="145" x2="1344.96" y2="1312.41" stroke="#292727" stroke-width="1.2607"/>
<line x1="1356.63" y1="144" x2="1356.63" y2="1311.41" stroke="#292727" stroke-width="1.2607"/>
<line x1="1356.63" y1="144" x2="1356.63" y2="1311.41" stroke="#292727" stroke-width="1.2607"/>
<line x1="1356.63" y1="144" x2="1356.63" y2="1311.41" stroke="#292727" stroke-width="1.2607"/>
<line x1="618.794" y1="145" x2="618.794" y2="1312.41" stroke="#292727" stroke-width="1.2607"/>
<line x1="296.054" y1="145" x2="296.054" y2="1312.41" stroke="#292727" stroke-width="1.2607"/>
<line x1="941.534" y1="145" x2="941.534" y2="1312.41" stroke="#292727" stroke-width="1.2607"/>
<line x1="1264.27" y1="145" x2="1264.27" y2="1312.41" stroke="#292727" stroke-width="1.2607"/>
<line x1="134.688" y1="145" x2="134.688" y2="1312.41" stroke="#292727" stroke-width="1.2607"/>
<line x1="780.164" y1="145" x2="780.164" y2="1312.41" stroke="#292727" stroke-width="1.2607"/>
<line x1="457.424" y1="145" x2="457.424" y2="1312.41" stroke="#292727" stroke-width="1.2607"/>
<line x1="1102.9" y1="145" x2="1102.9" y2="1312.41" stroke="#292727" stroke-width="1.2607"/>
<line x1="1425.64" y1="145" x2="1425.64" y2="1312.41" stroke="#292727" stroke-width="1.2607"/>
</g>
</g>
<defs>
<clipPath id="clip0_14_18">
<rect width="1436" height="1017" fill="white"/>
</clipPath>
</defs>
</svg>
